<svg width="24" height="24" viewBox="0 0 24 24" fill="none" xmlns="http://www.w3.org/2000/svg">
<path d="M19.3991 21.6986V19.3039C19.3991 16.4834 17.2197 14.7965 15.1251 13.1507C14.8358 12.9239 14.4675 12.4931 14.4675 11.8356C14.4675 11.1781 14.7993 10.537 15.1251 10.2628C17.1631 8.54794 19.3991 6.93005 19.3991 4.10958V2.30137H19.8922C20.5277 2.30137 21.0429 1.78619 21.0429 1.15069C21.0429 0.51518 20.5277 0 19.8922 0H4.11138C3.47587 0 2.96069 0.51518 2.96069 1.15069C2.96069 1.78619 3.47587 2.30137 4.11138 2.30137H4.60451V4.10962C4.60451 6.93014 6.84044 8.54798 8.87852 10.2628C9.20435 10.537 9.53608 11.1781 9.53608 11.8357C9.53608 12.4932 9.16783 12.9239 8.87852 13.1507C6.78396 14.7966 4.60451 16.4835 4.60451 19.3039V21.6987H4.11136C3.47586 21.6987 2.96069 22.2138 2.96069 22.8493C2.96069 23.4848 3.47586 24 4.11136 24H19.8922C20.5277 24 21.0429 23.4848 21.0429 22.8493C21.0429 22.2138 20.5277 21.6986 19.8922 21.6986H19.3991ZM7.85046 6.24656C7.24451 5.56073 6.90593 4.90059 6.90593 4.10958V2.30137H17.0977V4.10962C17.0977 4.90059 16.759 5.56083 16.1531 6.24661L7.85046 6.24656ZM17.0977 21.0572L13.2271 19.5466C12.5531 19.2836 11.4508 19.2836 10.7768 19.5466L6.90593 21.0573V19.304C6.90593 17.7082 8.17432 16.6305 10.2442 15.0044L10.2991 14.9614C11.0848 14.3452 11.5945 13.4872 11.7674 12.5416C11.9223 12.5761 12.0814 12.5761 12.2362 12.5416C12.4085 13.4869 12.9187 14.345 13.7035 14.9604L13.7593 15.0044C15.8292 16.6304 17.0976 17.7078 17.0976 19.304L17.0977 21.0572Z" fill="#00CD86"/>
</svg>
