<svg width="24" height="24" viewBox="0 0 24 24" fill="none" xmlns="http://www.w3.org/2000/svg">
<path d="M11.9986 7.12354C6.84971 7.12354 2.85718 12.7936 2.85718 17.6713C2.85718 23.3442 8.07479 24 11.9986 24C15.9224 24 21.14 23.3442 21.14 17.6713C21.14 12.7936 17.1475 7.12354 11.9986 7.12354ZM12.721 18.9506C12.7147 18.9529 12.7081 18.9518 12.7018 18.954V19.7808C12.7018 20.1695 12.3872 20.484 11.9986 20.484C11.61 20.484 11.2954 20.1695 11.2954 19.7808V18.9492C10.8319 18.7928 10.3878 18.496 10.0086 18.0441C9.75863 17.7468 9.79707 17.3032 10.0951 17.0532C10.3918 16.8033 10.8354 16.8411 11.0853 17.139C12.4718 18.795 13.4077 16.2649 11.9986 16.2649C10.8354 16.2649 9.88908 15.3186 9.88908 14.1553C9.88908 13.3138 10.3708 12.5115 11.2955 12.1824V11.3425C11.2955 10.9538 11.61 10.6393 11.9986 10.6393C12.3873 10.6393 12.7018 10.9539 12.7018 11.3425V12.1847C13.0659 12.3073 13.4209 12.5022 13.7374 12.8086C14.0162 13.0791 14.0244 13.5242 13.7539 13.803C13.4834 14.0825 13.0383 14.09 12.7595 13.8195C11.466 12.5699 10.5923 14.8585 11.9987 14.8585C13.1619 14.8585 14.1083 15.8048 14.1083 16.968C14.1082 17.8512 13.5505 18.6485 12.721 18.9506Z" fill="#00CD86"/>
<path d="M16.0116 0.566508C13.4159 -0.188836 10.5866 -0.188836 7.99089 0.566508C7.55533 0.692555 7.34739 1.19829 7.58162 1.59795L8.64522 3.50201C10.4946 2.76612 13.2378 2.65624 15.3571 3.50234L16.4209 1.59795C16.6551 1.19829 16.4472 0.692602 16.0116 0.566508Z" fill="#00CD86"/>
<path d="M15.2658 5.03489C13.9501 4.10798 10.0906 4.06931 8.72778 5.0392C8.14348 5.45165 7.83242 6.09965 7.83847 6.77658C9.18874 6.06126 10.772 5.71743 12.0009 5.71743C13.4976 5.71743 14.8997 6.10715 16.1634 6.77658C16.1692 6.1244 15.8793 5.46754 15.2658 5.03489Z" fill="#00CD86"/>
</svg>
