<svg width="24" height="24" viewBox="0 0 24 24" fill="none" xmlns="http://www.w3.org/2000/svg">
<g clip-path="url(#clip0_5712_42399)">
<path d="M13.8816 20.7269C13.8816 19.9854 13.2805 19.3843 12.539 19.3843L6.11683 19.3843C6.08669 19.3843 6.02714 19.3272 6.02714 19.2904L6.02714 9.11308L8.79795 9.11309C9.2096 9.11309 9.49713 8.85839 9.49713 8.49372C9.49713 8.35416 9.45356 8.21345 9.36763 8.07556L5.35387 1.62947C5.20699 1.39357 4.98606 1.25837 4.74781 1.2583C4.51063 1.2583 4.29104 1.39256 4.1451 1.62672L0.131538 8.07542C0.0455424 8.21352 0.00190608 8.35416 0.00190608 8.49372C0.00190606 8.85839 0.289432 9.11308 0.701152 9.11308L3.34186 9.11308L3.34186 19.2904C3.34186 20.7968 4.61267 22.0696 6.11683 22.0696L12.5389 22.0696C13.2805 22.0696 13.8816 21.4685 13.8816 20.7269Z" fill="#00CD86"/>
<path d="M19.8568 22.373L23.8704 15.9243C23.9564 15.7862 24 15.6456 24 15.506C24 15.1414 23.7125 14.8867 23.3008 14.8867L20.66 14.8867L20.66 4.70938C20.66 3.20293 19.3892 1.93018 17.8851 1.93018L11.4629 1.93018C10.7214 1.93018 10.1203 2.53128 10.1203 3.27282C10.1203 4.01436 10.7214 4.61546 11.4629 4.61546L17.8851 4.61546C17.9152 4.61546 17.9748 4.67259 17.9748 4.70938L17.9748 14.8867L15.2039 14.8867C14.7923 14.8867 14.5048 15.1414 14.5048 15.506C14.5048 15.6456 14.5483 15.7863 14.6343 15.9242L18.648 22.3703C18.7949 22.6062 19.0158 22.7414 19.2541 22.7415C19.4913 22.7415 19.7109 22.6072 19.8568 22.373Z" fill="#00CD86"/>
</g>
<defs>
<clipPath id="clip0_5712_42399">
<rect width="24" height="24" fill="white" transform="translate(24) rotate(90)"/>
</clipPath>
</defs>
</svg>
