<svg width="24" height="24" viewBox="0 0 24 24" fill="none" xmlns="http://www.w3.org/2000/svg">
<path fill-rule="evenodd" clip-rule="evenodd" d="M15.8909 0.479485C15.251 -0.159758 14.2098 -0.159899 13.5698 0.479485L5.50964 8.53098H10.8089L17.3764 1.96338L15.8909 0.479485ZM23.519 8.09956L18.3712 2.95726L12.7975 8.53101H18.5157C20.1958 8.53101 21.5626 9.89785 21.5626 11.5779V12.3746L23.519 10.4203C23.8293 10.1104 24.0002 9.6983 24.0002 9.25992C24.0002 8.82154 23.8293 8.40946 23.519 8.09956ZM1.64065 9.93731H18.5159C19.4205 9.93731 20.1565 10.6733 20.1565 11.578V22.3594C20.1565 23.264 19.4205 24 18.5159 24H1.64065C0.735994 24 0 23.264 0 22.3594V11.578C0 10.6733 0.735994 9.93731 1.64065 9.93731ZM14.4148 13.5551C13.9615 13.5551 13.5939 13.9226 13.5939 14.376C13.5939 14.8294 13.9615 15.1969 14.4148 15.1969H16.5231C16.9764 15.1969 17.344 14.8294 17.344 14.376C17.344 13.9226 16.9764 13.5551 16.5231 13.5551H14.4148ZM4.05532 13.5551C3.60195 13.5551 3.23442 13.9226 3.23442 14.376C3.23442 14.8294 3.60195 15.1969 4.05532 15.1969H10.7574C11.2107 15.1969 11.5783 14.8294 11.5783 14.376C11.5783 13.9226 11.2107 13.5551 10.7574 13.5551H4.05532Z" fill="#00CD86"/>
</svg>
