<svg width="28" height="29" viewBox="0 0 28 29" fill="none" xmlns="http://www.w3.org/2000/svg">
<g clip-path="url(#clip0_6408_52125)">
<path d="M27.5836 18.3865C25.7133 25.8872 18.1155 30.452 10.613 28.5815C3.11364 26.7115 -1.45172 19.1141 0.419411 11.6138C2.28879 4.11226 9.88662 -0.453002 17.3869 1.41703C24.8889 3.28706 29.4538 10.8853 27.5836 18.3865Z" fill="#F08F1C"/>
<path d="M20.1738 13.0039C20.4526 11.1409 19.0339 10.1393 17.0941 9.47122L17.7233 6.9475L16.1869 6.56466L15.5743 9.02187C15.1704 8.92123 14.7556 8.82629 14.3434 8.73222L14.9604 6.25882L13.4249 5.87598L12.7952 8.39881C12.4609 8.32268 12.1327 8.24743 11.8141 8.16823L11.8159 8.16036L9.69708 7.63137L9.28837 9.27214C9.28837 9.27214 10.4283 9.53335 10.4042 9.54954C11.0265 9.70486 11.1389 10.1166 11.1201 10.443L10.4033 13.318C10.4462 13.329 10.5018 13.3447 10.5631 13.3692C10.5119 13.3565 10.4572 13.3425 10.4007 13.329L9.39602 17.3565C9.31988 17.5455 9.1269 17.829 8.69194 17.7214C8.70726 17.7437 7.57522 17.4427 7.57522 17.4427L6.8125 19.2012L8.81184 19.6995C9.18379 19.7927 9.5483 19.8903 9.90712 19.9822L9.27131 22.5348L10.8059 22.9176L11.4356 20.3921C11.8548 20.5059 12.2618 20.6109 12.66 20.7098L12.0325 23.2234L13.5689 23.6063L14.2047 21.0585C16.8245 21.5542 18.7945 21.3543 19.6238 18.985C20.292 17.0774 19.5905 15.977 18.2121 15.2594C19.2159 15.0279 19.9721 14.3677 20.1738 13.0039ZM16.6635 17.9257C16.1887 19.8334 12.9764 18.8021 11.9349 18.5435L12.7786 15.1618C13.82 15.4217 17.1597 15.9363 16.6635 17.9257ZM17.1387 12.9763C16.7055 14.7116 14.0318 13.83 13.1645 13.6138L13.9294 10.5467C14.7967 10.7628 17.5899 11.1662 17.1387 12.9763Z" fill="white"/>
</g>
<defs>
<clipPath id="clip0_6408_52125">
<rect width="28" height="28" fill="white" transform="translate(0 0.998047)"/>
</clipPath>
</defs>
</svg>
