<svg width="28" height="29" viewBox="0 0 28 29" fill="none" xmlns="http://www.w3.org/2000/svg">
<mask id="mask0_6408_52174" style="mask-type:alpha" maskUnits="userSpaceOnUse" x="0" y="1" width="17" height="19">
<path d="M16.998 7.62248C11.7287 8.43434 7.694 12.9886 7.694 18.4852C7.694 18.8349 7.71034 19.1808 7.74228 19.5222C3.38137 19.0028 0 15.2919 0 10.7912C0 5.93487 3.93683 1.99805 8.79315 1.99805C12.5323 1.99805 15.7264 4.33196 16.998 7.62248Z" fill="white"/>
</mask>
<g mask="url(#mask0_6408_52174)">
<path d="M16.998 7.62248C11.7287 8.43434 7.694 12.9886 7.694 18.4852C7.694 18.8349 7.71034 19.1808 7.74228 19.5222C3.38137 19.0028 0 15.2919 0 10.7912C0 5.93487 3.93683 1.99805 8.79315 1.99805C12.5323 1.99805 15.7264 4.33196 16.998 7.62248Z" fill="#0052B4"/>
<path d="M10.2335 15.8628C8.61097 15.8628 7.20219 14.9431 6.49941 13.5958H10.2335V12.3004H6.07842C6.04603 12.0899 6.02338 11.8729 6.02338 11.6527C6.02338 11.4324 6.04606 11.2154 6.07842 11.005H10.2335V9.70952H6.49941C7.20219 8.36228 8.60772 7.44251 10.2335 7.44251C11.2795 7.44251 12.2349 7.82467 12.9701 8.45619L14.1198 7.31299C13.0899 6.39 11.7265 5.82324 10.2335 5.82324C7.69769 5.82324 5.54406 7.44576 4.74412 9.70952H2.46094V11.005H4.44294C4.41704 11.2187 4.40407 11.4324 4.40407 11.6527C4.40407 11.8729 4.41704 12.0866 4.44294 12.3004H2.46094V13.5958H4.74412C5.54406 15.8595 7.69769 17.4821 10.2335 17.4821C11.7265 17.4821 13.0899 16.9153 14.1198 15.9923L12.9701 14.8459C12.2349 15.4774 11.2795 15.8628 10.2335 15.8628Z" fill="white"/>
</g>
<mask id="mask1_6408_52174" style="mask-type:alpha" maskUnits="userSpaceOnUse" x="10" y="9" width="18" height="19">
<path d="M27.7299 21.0855C26.5331 25.8855 21.6709 28.8067 16.8698 27.6098C12.0707 26.413 9.14912 21.5512 10.3465 16.7515C11.5428 11.9509 16.405 9.02942 21.2047 10.2261C26.0055 11.4228 28.9268 16.2853 27.7299 21.0855Z" fill="white"/>
</mask>
<g mask="url(#mask1_6408_52174)">
<path d="M27.7299 21.0855C26.5331 25.8855 21.6709 28.8067 16.8698 27.6098C12.0707 26.413 9.14912 21.5512 10.3465 16.7515C11.5428 11.9509 16.405 9.02942 21.2047 10.2261C26.0055 11.4228 28.9268 16.2853 27.7299 21.0855Z" fill="white"/>
<path d="M19.6255 21.1546H32.4811C32.4811 19.6552 32.3329 18.2026 32.0567 16.8208H19.6255V21.1546Z" fill="#D80027"/>
<path d="M19.6255 13.3148H32.4811C32.4811 11.8153 32.3329 10.3627 32.0567 8.98096H19.6255V13.3148Z" fill="#D80027"/>
<path d="M9.64946 28.7039H30.6729C31.2784 27.3717 31.7479 25.9155 32.0567 24.3701H8.26562C8.57444 25.9155 9.044 27.3717 9.64946 28.7039Z" fill="#D80027"/>
<path d="M13.4398 9.95781L14.6694 10.7612L13.6251 11.5199L14.024 12.7474L12.9797 11.9888L11.9355 12.7474L12.28 11.6869C11.3606 12.4528 10.5547 13.3501 9.89054 14.3499H10.2503L9.58553 14.8328C9.48196 15.0056 9.38263 15.1811 9.28744 15.3592L9.60487 16.3361L9.01265 15.9059C8.86543 16.2178 8.73078 16.5367 8.60975 16.8622L8.95947 17.9386H10.2503L9.20597 18.6973L9.60487 19.9249L8.56061 19.1662L7.93508 19.6207C7.87247 20.124 7.83984 20.6366 7.83984 21.1568H20.1598C20.1598 14.353 20.1598 13.5509 20.1598 8.83734C16.7535 8.27754 15.3505 8.73992 13.4398 9.95781ZM14.024 19.9249L12.9797 19.1662L11.9355 19.9249L12.3344 18.6973L11.2901 17.9386H12.5809L12.9797 16.7111L13.3786 17.9386H14.6694L13.6251 18.6973L14.024 19.9249ZM13.6251 15.1086L14.024 16.3361L12.9797 15.5775L11.9355 16.3361L12.3344 15.1086L11.2901 14.3499H12.5809L12.9797 13.1224L13.3786 14.3499H14.6694L13.6251 15.1086ZM18.4431 19.9249L17.3988 19.1662L16.3546 19.9249L16.7535 18.6973L15.7092 17.9386H17L17.3988 16.7111L17.7977 17.9386H19.0885L18.0442 18.6973L18.4431 19.9249ZM18.0442 15.1086L18.4431 16.3361L17.3988 15.5775L16.3546 16.3361L16.7535 15.1086L15.7092 14.3499H17L17.3988 13.1224L17.7977 14.3499H19.0885L18.0442 15.1086ZM18.0442 11.5199L18.4431 12.7474L17.3988 11.9888L16.3546 12.7474L16.7535 11.5199L15.7092 10.7612H17L17.3988 9.53363L17.7977 10.7612H19.0885L18.0442 11.5199Z" fill="#0052B4"/>
</g>
</svg>
