<svg width="28" height="29" viewBox="0 0 28 29" fill="none" xmlns="http://www.w3.org/2000/svg">
<path fill-rule="evenodd" clip-rule="evenodd" d="M19.1927 3.11523C17.8511 2.59374 14.7351 2.271 12.7093 2.271C10.6836 2.271 7.5676 2.59374 6.22409 3.11523C4.77036 3.68003 3.86961 4.49868 3.86961 5.43935C3.86961 5.80538 4.00644 6.15371 4.25918 6.47448V8.59051L4.23637 8.61609C4.30858 8.70662 4.3979 8.79321 4.50051 8.87979C5.61599 9.81456 9.48453 10.401 12.2039 10.4876C14.9308 10.5742 19.0331 10.155 20.6084 9.07856C20.8422 8.91915 21.0455 8.74598 21.2165 8.55902V6.39576C21.4312 6.09664 21.5472 5.77586 21.5472 5.43935C21.5472 4.50065 20.6483 3.68003 19.1927 3.11523ZM17.6331 4.17111C16.6442 3.78295 14.2528 3.54372 12.7255 3.54372C11.1982 3.54372 8.80676 3.78295 7.81788 4.17111C6.91848 4.52283 6.36186 4.97911 6.36186 5.45281C6.36186 5.92811 6.91848 6.3828 7.81788 6.73452C8.80676 7.12109 11.1982 7.36191 12.7255 7.36191C14.2528 7.36191 16.6442 7.12268 17.6331 6.73452C18.5325 6.3828 19.0891 5.92652 19.0891 5.45281C19.0891 4.97911 18.5325 4.52283 17.6331 4.17111Z" fill="#1E4971"/>
<path d="M21.6346 12.179C21.6346 11.9035 21.5909 10.5186 21.5054 10.3336C21.3286 10.5087 21.131 10.6721 20.9106 10.8216C19.2364 11.965 15.0144 12.4137 12.1906 12.3231C9.36101 12.2326 5.36515 11.6009 4.15656 10.5874C4.07485 10.5186 3.99884 10.4477 3.92852 10.3729L3.92522 10.3806C3.85328 10.5487 3.81641 10.6348 3.81641 10.9043C3.81641 11.1778 3.97223 11.6226 4.25918 11.9473V17.5229C4.24927 17.5332 4.24079 17.5434 4.23126 17.555L4.22687 17.5603C4.30098 17.6528 4.3922 17.7453 4.50051 17.8358C5.61599 18.7725 9.48453 19.359 12.2058 19.4456C13.425 19.4843 14.9193 19.4219 16.3396 19.2448C16.7439 18.4038 17.369 17.5484 18.3295 16.2454C19.8151 14.2298 21.3222 12.599 21.3373 12.5827C21.4056 12.5091 21.4981 12.4638 21.5969 12.4546C21.6218 12.3543 21.6346 12.2603 21.6346 12.179Z" fill="#1E4971"/>
<path d="M15.7753 21.1446C15.7133 21.57 15.6752 22.0443 15.6528 22.5978C15.5989 23.9289 16.3479 25.137 17.4209 26.0458C16.1152 26.3046 14.5343 26.4528 12.7264 26.4528C8.54768 26.4528 3.88672 25.1068 3.88672 23.4439C3.88672 23.1172 4.01784 22.8043 4.25918 22.5111V20.8797C3.97223 20.553 3.81641 20.1063 3.81641 19.8367C3.81641 19.5779 3.84967 19.4968 3.91284 19.3428L3.92092 19.323C3.99313 19.3998 4.07105 19.4746 4.15656 19.5454C5.36515 20.5589 9.36101 21.1906 12.1906 21.2811C13.2569 21.3153 14.5226 21.2726 15.7753 21.1446Z" fill="#1E4971"/>
<path d="M23.6863 17.3303C22.6282 15.9032 21.555 14.7485 21.5443 14.737C21.4896 14.6783 21.4129 14.645 21.3328 14.645C21.2525 14.645 21.1759 14.6783 21.1212 14.737C21.1104 14.7485 20.0372 15.9032 18.9792 17.3303C17.534 19.2798 16.8013 20.793 16.8013 21.8281C16.8013 24.3269 18.8341 26.3599 21.3328 26.3599C23.8316 26.3599 25.8645 24.3269 25.8645 21.8281C25.8643 20.7929 25.1315 19.2798 23.6863 17.3303ZM21.7853 24.8933C21.5478 24.9495 21.303 24.9779 21.0575 24.9779C19.3137 24.9779 17.8949 23.5592 17.8949 21.8153C17.8949 21.5748 17.9689 21.1393 18.3215 20.4294C18.3569 20.358 18.4386 20.3227 18.5149 20.3454C18.5912 20.3681 18.6402 20.4425 18.6308 20.5216C18.6226 20.5899 18.6186 20.6542 18.6186 20.7128C18.6186 22.582 19.948 24.2057 21.7797 24.5734C21.8552 24.5885 21.9098 24.6542 21.9112 24.7312C21.9126 24.8082 21.8602 24.8756 21.7853 24.8933Z" fill="#1E4971"/>
</svg>
