<svg width="24" height="25" viewBox="0 0 24 25" fill="none" xmlns="http://www.w3.org/2000/svg">
<g clip-path="url(#clip0_5712_43091)">
<path d="M18.9702 10.9422C18.8685 10.7083 18.6551 10.5443 18.4049 10.5036L13.223 9.6592L14.5499 1.51621C14.6068 1.1668 14.4117 0.824961 14.0815 0.696686C13.7479 0.570889 13.376 0.689624 13.182 0.984781L5.08854 13.3447C4.94923 13.556 4.92801 13.8261 5.0302 14.0571C5.13216 14.2895 5.34533 14.455 5.59555 14.4957L10.7774 15.3401L9.45057 23.4831C9.39364 23.8325 9.58871 24.1744 9.9189 24.3026C9.96903 24.3214 10.0199 24.3358 10.0702 24.344C10.3574 24.3908 10.6527 24.2672 10.8182 24.016L18.9117 11.6561C19.0497 11.443 19.0737 11.1749 18.9702 10.9422Z" fill="#00CD86"/>
</g>
<defs>
<clipPath id="clip0_5712_43091">
<rect width="24" height="24" fill="white" transform="translate(0 0.5)"/>
</clipPath>
</defs>
</svg>
