<svg width="24" height="25" viewBox="0 0 24 25" fill="none" xmlns="http://www.w3.org/2000/svg">
<g clip-path="url(#clip0_5712_43087)">
<path d="M17.2993 10.8555H21.7068V18.6389H17.2993V10.8555Z" fill="#00CD86"/>
<path d="M9.79834 10.8555H14.2058V18.6389H9.79834V10.8555Z" fill="#00CD86"/>
<path d="M22.5513 20.0457C21.8433 20.0457 2.3085 20.0457 1.45157 20.0457C0.675946 20.0457 0.0449219 20.6767 0.0449219 21.4523V23.0934C0.0449219 23.869 0.675946 24.5 1.45157 24.5H22.5513C23.327 24.5 23.958 23.869 23.958 23.0934V21.4523C23.958 20.6767 23.327 20.0457 22.5513 20.0457Z" fill="#00CD86"/>
<path d="M23.0762 4.91591C12.2416 0.485758 12.5315 0.604245 12.5237 0.601103C12.1894 0.467331 11.8177 0.464611 11.4738 0.603073L0.926179 4.91591C0.390573 5.13141 0.0446777 5.64334 0.0446777 6.22086V8.04224C0.0446777 8.81787 0.675701 9.44889 1.45133 9.44889H22.5511C23.3267 9.44889 23.9577 8.81787 23.9577 8.04224V6.22086C23.9577 5.64334 23.6119 5.13141 23.0762 4.91591ZM12.7045 5.74466C12.7045 6.13309 12.3896 6.44799 12.0012 6.44799C11.6128 6.44799 11.2979 6.13309 11.2979 5.74466V4.24424C11.2979 3.85581 11.6128 3.54091 12.0012 3.54091C12.3896 3.54091 12.7045 3.85581 12.7045 4.24424V5.74466Z" fill="#00CD86"/>
<path d="M2.2937 10.8555H6.7012V18.6389H2.2937V10.8555Z" fill="#00CD86"/>
</g>
<defs>
<clipPath id="clip0_5712_43087">
<rect width="24" height="24" fill="white" transform="translate(0 0.5)"/>
</clipPath>
</defs>
</svg>
