<svg width="24" height="24" viewBox="0 0 24 24" fill="none" xmlns="http://www.w3.org/2000/svg">
<g clip-path="url(#clip0_5712_43094)">
<path d="M18.2573 15.8844C19.3714 14.2707 20.0251 12.3144 20.0251 10.2047C20.0251 4.67501 15.5432 0.192139 10.0126 0.192139C4.48192 0.192139 0 4.67496 0 10.2046C0 15.7343 4.48192 20.2172 10.0126 20.2172C12.321 20.2172 14.4452 19.4341 16.1387 18.122L20.9278 22.9111C21.5293 23.5125 22.5044 23.5125 23.1059 22.9111C23.7075 22.3097 23.7075 21.3344 23.106 20.7329L18.2573 15.8844ZM10.0126 18.0607C5.68072 18.0607 2.15654 14.5366 2.15654 10.2046C2.15654 5.87281 5.68062 2.34863 10.0126 2.34863C14.3445 2.34863 17.8686 5.87272 17.8686 10.2046C17.8686 14.5366 14.3444 18.0607 10.0126 18.0607Z" fill="#00CD86"/>
<path d="M9.2752 4.78232C9.15791 4.37362 8.7294 4.13378 8.33483 4.29227C6.42341 5.06007 4.90118 6.5822 4.13308 8.49361C3.97445 8.88834 4.21441 9.31707 4.62333 9.43438C5.0322 9.55167 5.45424 9.31243 5.6232 8.92207C6.23064 7.5186 7.3597 6.38941 8.76309 5.78196C9.15336 5.61304 9.39251 5.19108 9.2752 4.78232Z" fill="#00CD86"/>
</g>
<defs>
<clipPath id="clip0_5712_43094">
<rect width="24" height="24" fill="white"/>
</clipPath>
</defs>
</svg>
