<svg width="24" height="25" viewBox="0 0 24 25" fill="none" xmlns="http://www.w3.org/2000/svg">
<g clip-path="url(#clip0_5712_43083)">
<path d="M19.3991 22.1986V19.8039C19.3991 16.9834 17.2197 15.2965 15.1251 13.6507C14.8358 13.4239 14.4675 12.9931 14.4675 12.3356C14.4675 11.6781 14.7993 11.037 15.1251 10.7628C17.1631 9.04794 19.3991 7.43005 19.3991 4.60958V2.80137H19.8922C20.5277 2.80137 21.0429 2.28619 21.0429 1.65069V1.65069C21.0429 1.01518 20.5277 0.5 19.8922 0.5H4.11138C3.47587 0.5 2.96069 1.01518 2.96069 1.65069V1.65069C2.96069 2.28619 3.47587 2.80137 4.11138 2.80137H4.60451V4.60962C4.60451 7.43014 6.84044 9.04798 8.87852 10.7628C9.20435 11.037 9.53608 11.6781 9.53608 12.3357C9.53608 12.9932 9.16783 13.4239 8.87852 13.6507C6.78396 15.2966 4.60451 16.9835 4.60451 19.8039V22.1987H4.11136C3.47586 22.1987 2.96069 22.7138 2.96069 23.3493V23.3493C2.96069 23.9848 3.47586 24.5 4.11136 24.5H19.8922C20.5277 24.5 21.0429 23.9848 21.0429 23.3493V23.3493C21.0429 22.7138 20.5277 22.1986 19.8922 22.1986H19.3991ZM7.85046 6.74656C7.24451 6.06073 6.90593 5.40059 6.90593 4.60958V2.80137H17.0977V4.60962C17.0977 5.40059 16.759 6.06083 16.1531 6.74661L7.85046 6.74656ZM17.0977 21.5572L13.2271 20.0466C12.5531 19.7836 11.4508 19.7836 10.7768 20.0466L6.90593 21.5573V19.804C6.90593 18.2082 8.17432 17.1305 10.2442 15.5044L10.2991 15.4614C11.0848 14.8452 11.5945 13.9872 11.7674 13.0416C11.9223 13.0761 12.0814 13.0761 12.2362 13.0416C12.4085 13.9869 12.9187 14.845 13.7035 15.4604L13.7593 15.5044C15.8292 17.1304 17.0976 18.2078 17.0976 19.804L17.0977 21.5572Z" fill="#00CD86"/>
</g>
<defs>
<clipPath id="clip0_5712_43083">
<rect width="24" height="24" fill="white" transform="translate(0 0.5)"/>
</clipPath>
</defs>
</svg>
