<svg width="32" height="36" viewBox="0 0 32 36" fill="none" xmlns="http://www.w3.org/2000/svg">
<g filter="url(#filter0_d_5618_142)">
<path fill-rule="evenodd" clip-rule="evenodd" d="M5.39164 9.31214L15.6607 5.04854C15.8165 4.98383 15.9919 4.98381 16.1479 5.04855L26.417 9.31216C26.6541 9.41061 26.8086 9.64206 26.8086 9.89876V15.0818C26.8086 22.0508 22.5964 28.3194 16.1443 30.9529C15.9904 31.0157 15.8181 31.0157 15.6642 30.9529C9.21202 28.3193 5 22.0507 5 15.0818V9.89876C5 9.6421 5.15454 9.41062 5.39164 9.31214ZM15.7379 29.6043L15.9043 29.6776L16.0707 29.6043C21.8806 27.0446 25.5382 21.3103 25.5382 15.0818V10.3228L15.9043 6.32286L6.27034 10.3228V15.0818C6.27034 21.4797 10.0837 27.1132 15.7379 29.6043Z" fill="#00CD86"/>
<path d="M15.6607 5.04854L15.7566 5.27943L15.7566 5.27941L15.6607 5.04854ZM5.39164 9.31214L5.29578 9.08125L5.29576 9.08126L5.39164 9.31214ZM16.1479 5.04855L16.2437 4.81766L16.2437 4.81765L16.1479 5.04855ZM26.417 9.31216L26.5128 9.08127L26.5128 9.08127L26.417 9.31216ZM16.1443 30.9529L16.2388 31.1844L16.2388 31.1844L16.1443 30.9529ZM15.6642 30.9529L15.5698 31.1844L15.5698 31.1844L15.6642 30.9529ZM15.9043 29.6776L15.8035 29.9064L15.9043 29.9508L16.0051 29.9064L15.9043 29.6776ZM15.7379 29.6043L15.6371 29.8331L15.6371 29.8331L15.7379 29.6043ZM16.0707 29.6043L16.1715 29.8331L16.1715 29.8331L16.0707 29.6043ZM25.5382 10.3228H25.7882V10.1559L25.6341 10.0919L25.5382 10.3228ZM15.9043 6.32286L16.0001 6.09198L15.9043 6.05217L15.8084 6.09198L15.9043 6.32286ZM6.27034 10.3228L6.17448 10.0919L6.02034 10.1559V10.3228H6.27034ZM15.5649 4.81765L5.29578 9.08125L5.48751 9.54303L15.7566 5.27943L15.5649 4.81765ZM16.2437 4.81765C16.0264 4.72745 15.782 4.72744 15.5648 4.81766L15.7566 5.27941C15.851 5.24021 15.9574 5.24016 16.0521 5.27946L16.2437 4.81765ZM26.5128 9.08127L16.2437 4.81766L16.052 5.27944L26.3211 9.54305L26.5128 9.08127ZM27.0586 9.89876C27.0586 9.54102 26.8433 9.21847 26.5128 9.08127L26.3211 9.54304C26.4649 9.60276 26.5586 9.7431 26.5586 9.89876H27.0586ZM27.0586 15.0818V9.89876H26.5586V15.0818H27.0586ZM16.2388 31.1844C22.785 28.5125 27.0586 22.1524 27.0586 15.0818H26.5586C26.5586 21.9492 22.4079 28.1263 16.0499 30.7214L16.2388 31.1844ZM15.5698 31.1844C15.7841 31.2719 16.0243 31.2719 16.2388 31.1844L16.0499 30.7214C15.9565 30.7595 15.852 30.7595 15.7587 30.7215L15.5698 31.1844ZM4.75 15.0818C4.75 22.1523 9.02349 28.5124 15.5698 31.1844L15.7587 30.7215C9.40055 28.1263 5.25 21.9492 5.25 15.0818H4.75ZM4.75 9.89876V15.0818H5.25V9.89876H4.75ZM5.29576 9.08126C4.96538 9.21848 4.75 9.54104 4.75 9.89876H5.25C5.25 9.74317 5.3437 9.60276 5.48753 9.54302L5.29576 9.08126ZM16.0051 29.4488L15.8387 29.3755L15.6371 29.8331L15.8035 29.9064L16.0051 29.4488ZM15.9699 29.3755L15.8035 29.4488L16.0051 29.9064L16.1715 29.8331L15.9699 29.3755ZM25.2882 15.0818C25.2882 21.2124 21.6881 26.8562 15.9699 29.3755L16.1715 29.8331C22.0732 27.2329 25.7882 21.4082 25.7882 15.0818H25.2882ZM25.2882 10.3228V15.0818H25.7882V10.3228H25.2882ZM15.8084 6.55375L25.4424 10.5537L25.6341 10.0919L16.0001 6.09198L15.8084 6.55375ZM6.3662 10.5537L16.0001 6.55375L15.8084 6.09198L6.17448 10.0919L6.3662 10.5537ZM6.52034 15.0818V10.3228H6.02034V15.0818H6.52034ZM15.8387 29.3755C10.2735 26.9236 6.52034 21.3788 6.52034 15.0818H6.02034C6.02034 21.5807 9.89399 27.3028 15.6371 29.8331L15.8387 29.3755Z" fill="#00CD86"/>
</g>
<path d="M14.7473 19.972L14.3938 20.3256L14.7473 20.6791L15.1009 20.3256L14.7473 19.972ZM12.1221 17.3467L11.7685 17.7003L11.7685 17.7003L12.1221 17.3467ZM19.689 15.0304L20.0426 15.3839L20.0426 15.3839L19.689 15.0304ZM20.2954 15.0304L20.649 14.6768V14.6768L20.2954 15.0304ZM20.2954 15.6368L19.9419 15.2832L19.9418 15.2833L20.2954 15.6368ZM15.0505 20.8817L15.4041 21.2352L15.4041 21.2352L15.0505 20.8817ZM14.4441 20.8817L14.0906 21.2352L14.0906 21.2352L14.4441 20.8817ZM11.5156 17.9532L11.8692 17.5996L11.8692 17.5996L11.5156 17.9532ZM11.5156 17.3468L11.8691 17.7004L11.8691 17.7004L11.5156 17.3468ZM15.1009 19.6185L12.4756 16.9932L11.7685 17.7003L14.3938 20.3256L15.1009 19.6185ZM19.3355 14.6768L14.3938 19.6185L15.1009 20.3256L20.0426 15.3839L19.3355 14.6768ZM20.649 14.6768C20.2862 14.3141 19.6982 14.3141 19.3355 14.6768L20.0426 15.3839C20.0148 15.4117 19.9697 15.4117 19.9419 15.3839L20.649 14.6768ZM20.6489 15.9904C21.0116 15.6277 21.0118 15.0396 20.649 14.6768L19.9419 15.3839C19.914 15.3561 19.9141 15.311 19.9419 15.2832L20.6489 15.9904ZM15.4041 21.2352L20.6489 15.9904L19.9418 15.2833L14.697 20.5281L15.4041 21.2352ZM14.0906 21.2352C14.4532 21.5979 15.0413 21.598 15.4041 21.2352L14.697 20.5281C14.7248 20.5003 14.7699 20.5003 14.7977 20.5281L14.0906 21.2352ZM11.1621 18.3067L14.0906 21.2352L14.7977 20.5281L11.8692 17.5996L11.1621 18.3067ZM11.1621 16.9932C10.7993 17.3559 10.7993 17.944 11.1621 18.3067L11.8692 17.5996C11.8969 17.6274 11.897 17.6725 11.8691 17.7004L11.1621 16.9932ZM12.4756 16.9932C12.113 16.6305 11.5249 16.6304 11.1621 16.9932L11.8691 17.7004C11.8414 17.7281 11.7964 17.7281 11.7685 17.7003L12.4756 16.9932ZM10.871 17.4093L11.162 17.7003L11.8692 16.9932L11.5782 16.7022L10.871 17.4093Z" fill="#00CD86"/>
<defs>
<filter id="filter0_d_5618_142" x="0.75" y="0.75" width="30.3086" height="34.5" filterUnits="userSpaceOnUse" color-interpolation-filters="sRGB">
<feFlood flood-opacity="0" result="BackgroundImageFix"/>
<feColorMatrix in="SourceAlpha" type="matrix" values="0 0 0 0 0 0 0 0 0 0 0 0 0 0 0 0 0 0 127 0" result="hardAlpha"/>
<feOffset/>
<feGaussianBlur stdDeviation="2"/>
<feColorMatrix type="matrix" values="0 0 0 0 0.2875 0 0 0 0 1 0 0 0 0 0.9145 0 0 0 1 0"/>
<feBlend mode="normal" in2="BackgroundImageFix" result="effect1_dropShadow_5618_142"/>
<feBlend mode="normal" in="SourceGraphic" in2="effect1_dropShadow_5618_142" result="shape"/>
</filter>
</defs>
</svg>
